HIERARCHY
ROOT Hips
{
	OFFSET 0.000000 0.000000 0.000000
	CHANNELS 6 Xposition Yposition Zposition Zrotation Yrotation Xrotation 
	JOINT LHipJoint
	{
		OFFSET 0.000000 0.000000 0.000000
		CHANNELS 3 Zrotation Yrotation Xrotation
		JOINT LeftUpLeg
		{
			OFFSET 1.363060 -1.794630 0.839290
			CHANNELS 3 Zrotation Yrotation Xrotation
			JOINT LeftLeg
			{
				OFFSET 2.448110 -6.726130 0.000000
				CHANNELS 3 Zrotation Yrotation Xrotation
				JOINT LeftFoot
				{
					OFFSET 2.562200 -7.039590 0.000000
					CHANNELS 3 Zrotation Yrotation Xrotation
					JOINT LeftToeBase
					{
						OFFSET 0.157640 -0.433110 2.322550
						CHANNELS 3 Zrotation Yrotation Xrotation
						End Site
						{
							OFFSET 0.000000 0.000000 0.000000
						}
					}
				}
			}
		}
	}
	JOINT RHipJoint
	{
		OFFSET 0.000000 0.000000 0.000000
		CHANNELS 3 Zrotation Yrotation Xrotation
		JOINT RightUpLeg
		{
			OFFSET -1.305520 -1.794630 0.839290
			CHANNELS 3 Zrotation Yrotation Xrotation
			JOINT RightLeg
			{
				OFFSET -2.542530 -6.985550 0.000000
				CHANNELS 3 Zrotation Yrotation Xrotation
				JOINT RightFoot
				{
					OFFSET -2.568260 -7.056230 0.000000
					CHANNELS 3 Zrotation Yrotation Xrotation
					JOINT RightToeBase
					{
						OFFSET -0.164730 -0.452590 2.363150
						CHANNELS 3 Zrotation Yrotation Xrotation
						End Site
						{
							OFFSET 0.000000 0.000000 0.000000
						}
					}
				}
			}
		}
	}
	JOINT LowerBack
	{
		OFFSET 0.000000 0.000000 0.000000
		CHANNELS 3 Zrotation Yrotation Xrotation
		JOINT Spine
		{
			OFFSET 0.028270 2.035590 -0.193380
			CHANNELS 3 Zrotation Yrotation Xrotation
			JOINT Spine1
			{
				OFFSET 0.056720 2.048850 -0.042750
				CHANNELS 3 Zrotation Yrotation Xrotation
				JOINT Neck
				{
					OFFSET 0.000000 0.000000 0.000000
					CHANNELS 3 Zrotation Yrotation Xrotation
					JOINT Neck1
					{
						OFFSET -0.054170 1.746240 0.172020
						CHANNELS 3 Zrotation Yrotation Xrotation
						JOINT Head
						{
							OFFSET 0.104070 1.761360 -0.123970
							CHANNELS 3 Zrotation Yrotation Xrotation
							End Site
							{
								OFFSET 0.000000 0.000000 0.000000
							}
						}
					}
				}
				JOINT LeftShoulder
				{
					OFFSET 0.000000 0.000000 0.000000
					CHANNELS 3 Zrotation Yrotation Xrotation
					JOINT LeftArm
					{
						OFFSET 3.362410 1.200890 -0.311210
						CHANNELS 3 Zrotation Yrotation Xrotation
						JOINT LeftForeArm
						{
							OFFSET 4.983000 -0.000000 -0.000000
							CHANNELS 3 Zrotation Yrotation Xrotation
							JOINT LeftHand
							{
								OFFSET 3.483560 -0.000000 -0.000000
								CHANNELS 3 Zrotation Yrotation Xrotation
								JOINT LeftFingerBase
								{
									OFFSET 0.000000 0.000000 0.000000
									CHANNELS 3 Zrotation Yrotation Xrotation
									JOINT LeftHandIndex1
									{
										OFFSET 0.715260 -0.000000 -0.000000
										CHANNELS 3 Zrotation Yrotation Xrotation
										End Site
										{
											OFFSET 0.000000 0.000000 0.000000
										}
									}
								}
								JOINT LThumb
								{
									OFFSET 0.000000 0.000000 0.000000
									CHANNELS 3 Zrotation Yrotation Xrotation
									End Site
									{
										OFFSET 0.000000 0.000000 0.000000
									}
								}
							}
						}
					}
				}
				JOINT RightShoulder
				{
					OFFSET 0.000000 0.000000 0.000000
					CHANNELS 3 Zrotation Yrotation Xrotation
					JOINT RightArm
					{
						OFFSET -3.136600 1.374050 -0.404650
						CHANNELS 3 Zrotation Yrotation Xrotation
						JOINT RightForeArm
						{
							OFFSET -5.241900 -0.000000 -0.000000
							CHANNELS 3 Zrotation Yrotation Xrotation
							JOINT RightHand
							{
								OFFSET -3.444170 -0.000000 -0.000000
								CHANNELS 3 Zrotation Yrotation Xrotation
								JOINT RightFingerBase
								{
									OFFSET 0.000000 0.000000 0.000000
									CHANNELS 3 Zrotation Yrotation Xrotation
									JOINT RightHandIndex1
									{
										OFFSET -0.622530 -0.000000 -0.000000
										CHANNELS 3 Zrotation Yrotation Xrotation
										End Site
										{
											OFFSET 0.000000 0.000000 0.000000
										}
									}
								}
								JOINT RThumb
								{
									OFFSET 0.000000 0.000000 0.000000
									CHANNELS 3 Zrotation Yrotation Xrotation
									End Site
									{
										OFFSET 0.000000 0.000000 0.000000
									}
								}
							}
						}
					}
				}
			}
		}
	}
}
MOTION
Frames: 6
Frame Time: 0.008333
3.622112 17.923737 -1.651642 -46.698386 77.821929 -53.774106 -2.188489 3.779656 3.772034 -1.943282 -8.128090 1.532158 -0.493591 8.663229 25.171631 5.472593 -7.230132 -0.630036 0.166400 -2.628100 -7.245100 2.947418 -3.480477 2.662340 20.471713 11.586064 3.021002 3.310461 -5.342410 16.533010 -3.740133 11.928956 8.000610 -0.079300 1.816500 -4.998900 -7.357748 1.997154 3.741411 -0.626397 2.170845 3.294585 -0.026047 1.394558 0.071509 4.067079 2.448970 -1.648154 14.123839 1.580498 10.681065 1.106300 1.669500 2.405100 -0.682482 -5.502629 1.009716 -71.705001 23.420410 25.579648 39.450769 -46.367057 -22.036986 0.668434 -1.757396 -3.130295 6.515136 3.966132 0.600800 -7.125000 0.000000 0.000000 -17.164900 35.328200 4.236700 1.610201 5.988905 2.199584 78.486081 -17.493941 26.782883 -27.324013 35.135478 -9.434530 0.652180 0.732999 7.914927 5.510516 -16.597571 -1.492000 7.125000 0.000000 0.000000 30.152000 -45.052000 -0.042700 
3.602843 17.930950 -1.666790 -47.116842 77.817630 -54.040342 -2.207822 3.738688 3.742156 -1.860141 -8.109806 1.252604 -0.482645 8.689266 25.229914 5.528288 -7.340870 -0.489682 0.157500 -2.557100 -7.047900 2.981054 -3.457345 2.656647 20.430328 11.692968 2.900491 3.342186 -5.284772 16.364355 -3.716817 11.788204 8.195310 -0.078300 1.804600 -4.966000 -7.197478 2.045497 3.958059 -0.629695 2.231700 3.356245 -0.134244 1.435060 0.042915 4.111005 2.412622 -1.639011 13.956129 1.557854 10.381832 1.048200 1.619100 2.316900 -0.692119 -5.510007 0.996325 -71.816290 23.440069 25.543895 38.776645 -46.011718 -21.480030 0.664117 -1.751851 -2.895959 6.375820 3.955740 0.584400 -7.125000 0.000000 0.000000 -17.275400 35.302000 4.277600 1.609610 5.983164 2.202091 78.472603 -17.408810 27.055152 -27.499820 35.282132 -9.525356 0.655328 0.724198 7.884991 5.333622 -16.635868 -1.439500 7.125000 0.000000 0.000000 30.013300 -45.099400 -0.081200 
3.583367 17.938370 -1.682041 -47.584593 77.809560 -54.350310 -2.225708 3.696598 3.710746 -1.767831 -8.090793 0.962963 -0.470376 8.717068 25.293457 5.584107 -7.451707 -0.337201 0.147500 -2.474700 -6.819500 3.015027 -3.433932 2.651822 20.394510 11.792431 2.780636 3.375745 -5.220386 16.179126 -3.692823 11.646921 8.398955 -0.077300 1.793600 -4.935600 -7.012886 2.093424 4.182597 -0.626761 2.294217 3.424372 -0.247708 1.476878 0.019575 4.152517 2.373948 -1.636419 13.785098 1.531827 10.079724 0.990100 1.567000 2.229200 -0.702217 -5.516382 0.982446 -71.927579 23.463098 25.480722 38.093566 -45.643264 -20.920760 0.659592 -1.745140 -2.649616 6.250882 3.889635 0.563800 -7.125000 0.000000 0.000000 -17.362000 35.222000 4.336200 1.610421 5.976965 2.205670 78.433092 -17.316744 27.366834 -27.704115 35.451327 -9.631140 0.658454 0.711782 7.817499 5.070345 -16.662379 -1.359200 7.125000 0.000000 0.000000 29.793000 -45.143800 -0.116400 
3.563891 17.945892 -1.697292 -48.087815 77.799905 -54.691064 -2.242481 3.653539 3.677779 -1.669799 -8.070190 0.666118 -0.456730 8.746364 25.361000 5.640179 -7.561608 -0.183862 0.137900 -2.393400 -6.594200 3.049061 -3.410740 2.648005 20.361362 11.886331 2.662613 3.410586 -5.150437 15.980194 -3.668566 11.504969 8.605954 -0.076600 1.785000 -4.911900 -6.809672 2.139870 4.412848 -0.616661 2.356881 3.499108 -0.362157 1.519084 0.002612 4.186310 2.334007 -1.643986 13.615487 1.502761 9.782340 0.934300 1.514200 2.144800 -0.712398 -5.521408 0.968051 -72.041613 23.493001 25.391941 37.413098 -45.267661 -20.368459 0.654787 -1.737356 -2.392845 6.146965 3.780073 0.541400 -7.125000 0.000000 0.000000 -17.421700 35.100500 4.406200 1.612915 5.970225 2.210383 78.362223 -17.216122 27.720991 -27.934453 35.640916 -9.750688 0.661133 0.695851 7.722646 4.724875 -16.668369 -1.252200 7.125000 0.000000 0.000000 29.490700 -45.176600 -0.141200 
3.544312 17.953415 -1.712749 -48.625487 77.788088 -55.059095 -2.258363 3.609381 3.643312 -1.565338 -8.047553 0.360696 -0.441928 8.776524 25.430127 5.698043 -7.673793 -0.033519 0.129500 -2.319700 -6.390200 3.083255 -3.386971 2.644773 20.330336 11.971026 2.540866 3.446236 -5.076436 15.771414 -3.644828 11.366152 8.816568 -0.076100 1.780100 -4.898400 -6.585080 2.184545 4.649424 -0.600799 2.419199 3.576938 -0.480630 1.561622 -0.012059 4.213872 2.292480 -1.658623 13.449792 1.470197 9.490929 0.881200 1.460800 2.063400 -0.722186 -5.524679 0.953369 -72.155270 23.539658 25.283487 36.754122 -44.896487 -19.838789 0.649923 -1.728885 -2.119806 6.059928 3.639418 0.517900 -7.125000 0.000000 0.000000 -17.461300 34.949400 4.484300 1.616637 5.962800 2.216142 78.262173 -17.106000 28.113020 -28.188976 35.849181 -9.883919 0.663624 0.677448 7.609211 4.319459 -16.663764 -1.126500 7.125000 0.000000 0.000000 29.130300 -45.205000 -0.161400 
3.524939 17.961143 -1.728309 -49.166717 77.782275 -55.423274 -2.275266 3.563412 3.607060 -1.464630 -8.022954 0.050005 -0.427407 8.806534 25.497673 5.757456 -7.788355 0.108049 0.122900 -2.259500 -6.223500 3.117875 -3.362783 2.642423 20.289310 12.048217 2.411450 3.481868 -5.000654 15.558045 -3.622873 11.231666 9.026005 -0.076100 1.779500 -4.896800 -6.348939 2.227094 4.889972 -0.581474 2.480494 3.656756 -0.600638 1.604094 -0.024922 4.229989 2.250455 -1.683662 13.292451 1.434953 9.209082 0.832900 1.407600 1.986900 -0.731315 -5.525934 0.938439 -72.265655 23.607977 25.165388 36.125388 -44.535752 -19.337958 0.644795 -1.719663 -1.841504 6.004905 3.465684 0.494700 -7.125000 0.000000 0.000000 -17.467900 34.767800 4.566900 1.621522 5.954431 2.222861 78.132383 -16.988240 28.540214 -28.468285 36.076335 -10.031355 0.665220 0.656999 7.493572 3.869394 -16.636828 -0.986600 7.125000 0.000000 0.000000 28.720300 -45.216800 -0.167900 
